<?xml version="1.0" encoding="UTF-8"?>
<svg id="Capa_1" data-name="Capa 1" xmlns="http://www.w3.org/2000/svg" viewBox="0 0 1445.07 1060.09">
  <defs>
    <style>
      .cls-1 {
        fill: #647483;
      }
    </style>
  </defs>
  <g>
    <path class="cls-1" d="M37.98,891.84c-3.85-3.84-5.77-8.42-5.77-13.74s1.92-9.89,5.77-13.73c3.84-3.85,8.42-5.77,13.74-5.77s9.89,1.92,13.74,5.77c3.85,3.84,5.77,8.42,5.77,13.73s-1.92,9.9-5.77,13.74c-3.84,3.84-8.42,5.77-13.74,5.77s-9.89-1.92-13.74-5.77ZM36.05,915.47h31.32v137.38h-31.32v-137.38Z"/>
    <path class="cls-1" d="M127.87,915.47h31.32v16.21c11.54-12.64,25.28-18.96,41.21-18.96,8.61,0,15.66,1.65,21.16,4.95,5.5,3.3,9.89,8.16,13.19,14.56,13.37-13,28.3-19.51,44.79-19.51,13.74,0,24.22,3.67,31.46,10.99,7.23,7.33,10.85,17.22,10.85,29.68v99.46h-31.32v-91.49c0-6.59-1.65-11.77-4.94-15.52s-8.34-5.63-15.11-5.63c-11.91,0-21.89,6.13-29.95,18.4v94.24h-31.32v-90.94c0-6.78-1.6-12.09-4.81-15.94-3.21-3.84-8.11-5.77-14.7-5.77-5.86,0-11.4,1.88-16.62,5.63-5.22,3.75-9.85,8.65-13.87,14.69v92.32h-31.32v-137.38Z"/>
    <path class="cls-1" d="M387.02,1044.46c-8.34-7.41-12.5-17.35-12.5-29.81s4.35-22.67,13.05-30.09c8.7-7.42,20.19-11.86,34.48-13.33l39.84-4.12v-7.41c0-7.15-2.39-12.59-7.15-16.35-4.76-3.75-11.17-5.63-19.23-5.63-7.15,0-12.96,1.74-17.45,5.22-4.49,3.48-7.38,8.62-8.65,15.39l-27.2-1.37-1.37-1.1c2.56-13.92,8.97-24.6,19.23-32.01,10.26-7.42,22.44-11.13,36.54-11.13,16.67,0,30.13,4.17,40.39,12.5,10.26,8.34,15.39,19.74,15.39,34.21v56.32c0,9.16,3.66,13.74,10.99,13.74,1.65,0,3.66-.28,6.04-.83l.82.55v22.53c-5.68,1.82-11.45,2.74-17.31,2.74-6.59,0-12.5-1.55-17.72-4.67-5.22-3.11-9.02-8.24-11.4-15.39h-.82c-5.87,6.42-12.6,11.54-20.2,15.39-7.6,3.85-15.8,5.77-24.59,5.77-12.46,0-22.85-3.71-31.19-11.13ZM444.03,1024.68c6.05-3.57,11.99-8.74,17.86-15.52v-20.06l-35.72,4.12c-7.14.92-12.55,3.16-16.21,6.74-3.66,3.57-5.5,7.92-5.5,13.05,0,5.5,1.83,9.71,5.5,12.64,3.66,2.93,8.33,4.4,14.01,4.4,7.33,0,14.02-1.78,20.06-5.36Z"/>
    <path class="cls-1" d="M570.22,1044.19c-10.08-7.6-16.39-18.17-18.96-31.73l.55-1.65,26.1-4.4c1.83,7.51,5.22,13.29,10.17,17.31,4.94,4.04,12.27,6.05,21.98,6.05,6.59,0,12.13-1.47,16.62-4.4,4.49-2.93,6.73-6.96,6.73-12.09s-2.57-9.2-7.69-12.23c-5.13-3.02-14.2-6.18-27.2-9.48-14.11-3.48-24.64-8.47-31.6-14.97-6.96-6.5-10.44-15.07-10.44-25.69,0-6.96,2.01-13.37,6.04-19.23,4.03-5.86,9.71-10.49,17.03-13.87,7.33-3.39,15.66-5.09,25-5.09,14.84,0,26.83,3.43,35.99,10.3s14.66,16.72,16.49,29.54l-.55,1.37-26.65,3.58c-1.28-6.78-4.17-11.95-8.65-15.53-4.49-3.57-10.12-5.36-16.9-5.36-5.32,0-9.94,1.1-13.88,3.3-3.94,2.2-5.91,5.41-5.91,9.61s2.65,8.06,7.97,10.99c5.31,2.93,14.65,6.23,28.02,9.9,14.47,3.84,25.18,8.88,32.14,15.11,6.96,6.23,10.44,14.56,10.44,25,0,8.43-2.2,16.08-6.59,22.94-4.4,6.87-10.67,12.28-18.82,16.21-8.15,3.94-17.54,5.91-28.16,5.91-16.12,0-29.22-3.8-39.29-11.41Z"/>
    <path class="cls-1" d="M741.86,1046.53c-10.71-6.04-19.14-14.47-25.27-25.27-6.14-10.81-9.21-23.18-9.21-37.09s3.07-26.29,9.21-37.09c6.13-10.81,14.56-19.24,25.27-25.28,10.71-6.04,22.67-9.07,35.86-9.07,17.95,0,32.79,4.58,44.51,13.74,11.73,9.16,18.86,21.89,21.44,38.19l-.83,1.38-27.47,1.65c-2.02-8.42-6.23-15.06-12.64-19.92-6.41-4.86-14.65-7.28-24.72-7.28-11.73,0-21.3,3.84-28.72,11.53-7.41,7.7-11.12,18.41-11.12,32.15s3.71,24.45,11.12,32.14c7.42,7.69,16.99,11.53,28.72,11.53,10.07,0,18.22-2.33,24.45-7,6.22-4.67,10.53-11.4,12.91-20.19l27.47,1.65.83,1.38c-3.3,16.48-10.71,29.26-22.26,38.32-11.54,9.07-26.1,13.61-43.69,13.61-13.19,0-25.14-3.03-35.86-9.07Z"/>
    <path class="cls-1" d="M923.39,1046.25c-11.09-6.23-19.7-14.74-25.83-25.55-6.13-10.81-9.2-22.98-9.2-36.54s3.07-25.73,9.2-36.55c6.13-10.81,14.74-19.32,25.83-25.55,11.08-6.23,23.67-9.34,37.78-9.34s26.65,3.12,37.64,9.34c10.99,6.23,19.56,14.74,25.69,25.55,6.13,10.81,9.2,22.99,9.2,36.55s-3.07,25.73-9.2,36.54c-6.13,10.81-14.7,19.32-25.69,25.55-10.98,6.23-23.54,9.34-37.64,9.34s-26.7-3.12-37.78-9.34ZM990.84,1016.16c7.7-7.78,11.54-18.45,11.54-32s-3.84-24.22-11.54-32.01c-7.69-7.78-17.58-11.68-29.67-11.68s-22.03,3.89-29.81,11.68c-7.79,7.79-11.68,18.45-11.68,32.01s3.89,24.22,11.68,32c7.78,7.79,17.72,11.68,29.81,11.68s21.98-3.89,29.67-11.68Z"/>
    <path class="cls-1" d="M1086.64,915.47h31.32v17.86c5.68-5.86,12.59-10.76,20.74-14.7,8.14-3.94,16.89-5.91,26.24-5.91,14.65,0,26.05,4.17,34.21,12.5,8.15,8.34,12.23,19.37,12.23,33.11v94.52h-31.32v-86.55c0-8.42-2.16-14.88-6.46-19.37-4.3-4.49-10.57-6.73-18.81-6.73-6.97,0-13.7,2.16-20.2,6.45-6.5,4.3-12.04,9.85-16.62,16.62v89.57h-31.32v-137.38Z"/>
    <path class="cls-1" d="M1298.18,1046.25c-11.09-6.23-19.7-14.74-25.83-25.55-6.13-10.81-9.2-22.98-9.2-36.54s3.07-25.73,9.2-36.55c6.13-10.81,14.74-19.32,25.83-25.55,11.08-6.23,23.67-9.34,37.78-9.34s26.65,3.12,37.64,9.34c10.99,6.23,19.56,14.74,25.69,25.55,6.13,10.81,9.2,22.99,9.2,36.55s-3.07,25.73-9.2,36.54c-6.13,10.81-14.7,19.32-25.69,25.55-10.98,6.23-23.54,9.34-37.64,9.34s-26.7-3.12-37.78-9.34ZM1365.63,1016.16c7.7-7.78,11.54-18.45,11.54-32s-3.84-24.22-11.54-32.01c-7.69-7.78-17.58-11.68-29.67-11.68s-22.03,3.89-29.81,11.68-11.68,18.45-11.68,32.01,3.89,24.22,11.68,32c7.78,7.79,17.72,11.68,29.81,11.68s21.98-3.89,29.67-11.68Z"/>
  </g>
  <g>
    <g id="CIRCLE">
      <path class="cls-1" d="M421.88,397.07c0-38.47-31.21-69.68-69.7-69.68s-69.66,31.21-69.66,69.68,31.17,69.7,69.66,69.7,69.7-31.22,69.7-69.7h0Z"/>
    </g>
    <g id="LINE">
      <polyline class="cls-1" points="889.48 346.73 792.06 249.33 1040.42 1 1288.85 249.39 1191.63 346.61 1040.42 195.42 889.28 346.53"/>
      <path class="cls-1" d="M1040.42,793.16l396.09-396.09-97.22-97.2-298.87,298.87-444.69-444.89c-134.32-134.52-352.25-134.66-486.75-.32-134.52,134.34-134.66,352.27-.32,486.77,134.34,134.52,352.29,134.64,486.79.32.04-.06.1-.12.14-.16l95.97-95.96-97.26-97.24-92.75,92.79c-19.6,20.47-43.19,36.73-69.3,47.69-105.22,44.21-226.4-5.25-270.6-110.48-44.23-105.24,5.23-226.38,110.46-270.62,77.48-32.56,166.94-14.97,226.3,44.49l542.01,542.01"/>
    </g>
  </g>
</svg>