<?xml version="1.0" encoding="UTF-8"?>
<svg id="Capa_1" xmlns="http://www.w3.org/2000/svg" version="1.1" viewBox="0 0 1445.1 793.2">
  <!-- Generator: Adobe Illustrator 30.2.1, SVG Export Plug-In . SVG Version: 2.1.1 Build 1)  -->
  <defs>
    <style>
      .st0 {
        fill: #fff;
      }
    </style>
  </defs>
  <g id="CIRCLE">
    <path class="st0" d="M421.9,397.1c0-38.5-31.2-69.7-69.7-69.7s-69.7,31.2-69.7,69.7,31.2,69.7,69.7,69.7,69.7-31.2,69.7-69.7h0Z"/>
  </g>
  <g id="LINE">
    <polyline class="st0" points="889.5 346.7 792.1 249.3 1040.4 1 1288.8 249.4 1191.6 346.6 1040.4 195.4 889.3 346.5"/>
    <path class="st0" d="M1040.4,793.2l396.1-396.1-97.2-97.2-298.9,298.9-444.7-444.9c-134.3-134.5-352.2-134.7-486.8-.3-134.5,134.3-134.7,352.3-.3,486.8,134.3,134.5,352.3,134.6,486.8.3,0,0,0-.1.1-.2l96-96-97.3-97.2-92.8,92.8c-19.6,20.5-43.2,36.7-69.3,47.7-105.2,44.2-226.4-5.2-270.6-110.5-44.2-105.2,5.2-226.4,110.5-270.6,77.5-32.6,166.9-15,226.3,44.5l542,542"/>
  </g>
</svg>