<?xml version="1.0" encoding="UTF-8"?>
<svg id="Capa_1" xmlns="http://www.w3.org/2000/svg" version="1.1" viewBox="0 0 220.5 213.5">
  <!-- Generator: Adobe Illustrator 30.2.1, SVG Export Plug-In . SVG Version: 2.1.1 Build 1)  -->
  <defs>
    <style>
      .st0 {
        fill: none;
        stroke: #000;
        stroke-miterlimit: 10;
        stroke-width: 3px;
      }
    </style>
  </defs>
  <rect class="st0" x="48.7" y="45.2" width="123" height="123" rx="12" ry="12"/>
  <line class="st0" x1="19.4" y1="68.9" x2="48.7" y2="68.9"/>
  <line class="st0" x1="19.4" y1="144.6" x2="48.7" y2="144.6"/>
  <line class="st0" x1="19.4" y1="106.7" x2="48.7" y2="106.7"/>
  <line class="st0" x1="171.7" y1="68.9" x2="201" y2="68.9"/>
  <line class="st0" x1="171.7" y1="144.6" x2="201" y2="144.6"/>
  <line class="st0" x1="171.7" y1="106.7" x2="201" y2="106.7"/>
  <line class="st0" x1="148" y1="16" x2="148" y2="45.2"/>
  <line class="st0" x1="72.4" y1="16" x2="72.4" y2="45.2"/>
  <line class="st0" x1="110.2" y1="16" x2="110.2" y2="45.2"/>
  <line class="st0" x1="148" y1="168.3" x2="148" y2="197.5"/>
  <line class="st0" x1="72.4" y1="168.3" x2="72.4" y2="197.5"/>
  <line class="st0" x1="110.2" y1="168.3" x2="110.2" y2="197.5"/>
  <rect class="st0" x="91.5" y="88" width="37.5" height="37.5" rx="12" ry="12"/>
</svg>